# xmcd CD database file
#
# Track frame offsets:
#	150
#	19825
#	39540
#	60663
#	63764
#	84553
#	108792
#	111500
#	136891
#	159905
#	184148
#	209145
#	231001
#
# Disc length: 3119 seconds
#
# Revision: 0
# Processed by: cddbd v1.5.1PL2 Copyright (c) Steve Scherf et al.
# Submitted via: CDex 1.51
#
DISCID=ad0c2d0d
DTITLE=Convergencia - Que emoción
DYEAR=2005
DGENRE=Salsa
TTITLE0=No Te Vayas
TTITLE1=Te Lo Llevaste
TTITLE2=Porque Te Has Ido
TTITLE3=Que Pasará Intro
TTITLE4=Que Pasará
TTITLE5=Que Hermosa Fortuna
TTITLE6=Obsesión Intro
TTITLE7=Obsesión
TTITLE8=No Me Digas Que Me Amas
TTITLE9=Me Vas A Extrañar
TTITLE10=Se Me Envenena El Alma
TTITLE11=Presentación III
TTITLE12=Llegó
EXTD=YEAR: 2005
EXTT0=
EXTT1=
EXTT2=
EXTT3=
EXTT4=
EXTT5=
EXTT6=
EXTT7=
EXTT8=
EXTT9=
EXTT10=
EXTT11=
EXTT12=
PLAYORDER=
